<mxfile host="app.diagrams.net" modified="2023-12-31T14:29:27.727Z" agent="Mozilla/5.0 (Windows NT 10.0; Win64; x64) AppleWebKit/537.36 (KHTML, like Gecko) Chrome/120.0.0.0 Safari/537.36" etag="DXAlkdtV-ivznt0LVrvQ" version="22.1.16" type="google">
  <diagram name="Page-1" id="xa0Po1D0JOcWhaekuTF8">
    <mxGraphModel dx="1720" dy="743" grid="1" gridSize="10" guides="1" tooltips="1" connect="1" arrows="1" fold="1" page="1" pageScale="1" pageWidth="850" pageHeight="1100" math="0" shadow="0">
      <root>
        <mxCell id="0" />
        <mxCell id="1" parent="0" />
        <mxCell id="qeAUwu_SVHN8Ln0CX-Be-1" value="Regular&lt;br&gt;Student" style="shape=umlActor;verticalLabelPosition=bottom;verticalAlign=top;html=1;outlineConnect=0;" vertex="1" parent="1">
          <mxGeometry x="25.01" y="20" width="30" height="60" as="geometry" />
        </mxCell>
        <mxCell id="qeAUwu_SVHN8Ln0CX-Be-2" value="Event&lt;br&gt;Manager" style="shape=umlActor;verticalLabelPosition=bottom;verticalAlign=top;html=1;outlineConnect=0;" vertex="1" parent="1">
          <mxGeometry x="120" y="20" width="30" height="60" as="geometry" />
        </mxCell>
        <mxCell id="qeAUwu_SVHN8Ln0CX-Be-4" value="" style="rounded=0;whiteSpace=wrap;html=1;rotation=90;" vertex="1" parent="1">
          <mxGeometry x="-572.29" y="760.73" width="1224.6" height="10" as="geometry" />
        </mxCell>
        <mxCell id="qeAUwu_SVHN8Ln0CX-Be-5" value="" style="rounded=0;whiteSpace=wrap;html=1;rotation=90;" vertex="1" parent="1">
          <mxGeometry x="-146.79" y="430.21" width="563.56" height="10" as="geometry" />
        </mxCell>
        <mxCell id="qeAUwu_SVHN8Ln0CX-Be-6" value="" style="endArrow=none;dashed=1;html=1;dashPattern=1 3;strokeWidth=2;rounded=0;" edge="1" parent="1">
          <mxGeometry width="50" height="50" relative="1" as="geometry">
            <mxPoint x="40" y="150" as="sourcePoint" />
            <mxPoint x="40" y="120" as="targetPoint" />
            <Array as="points">
              <mxPoint x="40" y="140" />
            </Array>
          </mxGeometry>
        </mxCell>
        <mxCell id="qeAUwu_SVHN8Ln0CX-Be-7" value="" style="endArrow=none;dashed=1;html=1;dashPattern=1 3;strokeWidth=2;rounded=0;" edge="1" parent="1">
          <mxGeometry width="50" height="50" relative="1" as="geometry">
            <mxPoint x="134.8" y="150" as="sourcePoint" />
            <mxPoint x="134.8" y="120" as="targetPoint" />
            <Array as="points">
              <mxPoint x="134.8" y="140" />
            </Array>
          </mxGeometry>
        </mxCell>
        <mxCell id="qeAUwu_SVHN8Ln0CX-Be-8" value="&lt;font style=&quot;font-size: 9px;&quot;&gt;Website User Interface&lt;/font&gt;" style="ellipse;whiteSpace=wrap;html=1;aspect=fixed;" vertex="1" parent="1">
          <mxGeometry x="254.5" y="20" width="70" height="70" as="geometry" />
        </mxCell>
        <mxCell id="qeAUwu_SVHN8Ln0CX-Be-9" value="" style="rounded=0;whiteSpace=wrap;html=1;rotation=90;" vertex="1" parent="1">
          <mxGeometry x="-324.9" y="763.34" width="1229.8" height="10" as="geometry" />
        </mxCell>
        <mxCell id="qeAUwu_SVHN8Ln0CX-Be-10" value="&lt;font style=&quot;font-size: 9px;&quot;&gt;&lt;font style=&quot;&quot;&gt;Website User Inte&lt;/font&gt;rface Controller&lt;/font&gt;" style="ellipse;whiteSpace=wrap;html=1;aspect=fixed;" vertex="1" parent="1">
          <mxGeometry x="404.22" y="20" width="70" height="70" as="geometry" />
        </mxCell>
        <mxCell id="qeAUwu_SVHN8Ln0CX-Be-11" value="" style="endArrow=classic;html=1;rounded=0;" edge="1" parent="1">
          <mxGeometry width="50" height="50" relative="1" as="geometry">
            <mxPoint x="50" y="266" as="sourcePoint" />
            <mxPoint x="280" y="266" as="targetPoint" />
          </mxGeometry>
        </mxCell>
        <mxCell id="qeAUwu_SVHN8Ln0CX-Be-13" value="&lt;font style=&quot;font-size: 8px;&quot;&gt;View login page&lt;/font&gt;" style="text;html=1;strokeColor=none;fillColor=none;align=center;verticalAlign=middle;whiteSpace=wrap;rounded=0;" vertex="1" parent="1">
          <mxGeometry x="185" y="240" width="60" height="30" as="geometry" />
        </mxCell>
        <mxCell id="qeAUwu_SVHN8Ln0CX-Be-14" value="" style="rounded=0;whiteSpace=wrap;html=1;rotation=90;" vertex="1" parent="1">
          <mxGeometry x="-177.09" y="764.75" width="1232.62" height="10" as="geometry" />
        </mxCell>
        <mxCell id="qeAUwu_SVHN8Ln0CX-Be-15" value="" style="endArrow=classic;html=1;rounded=0;" edge="1" parent="1">
          <mxGeometry width="50" height="50" relative="1" as="geometry">
            <mxPoint x="300" y="266" as="sourcePoint" />
            <mxPoint x="430" y="266" as="targetPoint" />
          </mxGeometry>
        </mxCell>
        <mxCell id="qeAUwu_SVHN8Ln0CX-Be-16" value="&lt;font style=&quot;font-size: 8px;&quot;&gt;View login page&lt;/font&gt;" style="text;html=1;strokeColor=none;fillColor=none;align=center;verticalAlign=middle;whiteSpace=wrap;rounded=0;" vertex="1" parent="1">
          <mxGeometry x="335" y="240" width="60" height="30" as="geometry" />
        </mxCell>
        <mxCell id="qeAUwu_SVHN8Ln0CX-Be-19" value="" style="endArrow=classic;html=1;rounded=0;" edge="1" parent="1">
          <mxGeometry width="50" height="50" relative="1" as="geometry">
            <mxPoint x="430" y="306" as="sourcePoint" />
            <mxPoint x="300" y="306" as="targetPoint" />
          </mxGeometry>
        </mxCell>
        <mxCell id="qeAUwu_SVHN8Ln0CX-Be-20" value="&lt;font style=&quot;font-size: 8px;&quot;&gt;Display login page&lt;/font&gt;" style="text;html=1;strokeColor=none;fillColor=none;align=center;verticalAlign=middle;whiteSpace=wrap;rounded=0;" vertex="1" parent="1">
          <mxGeometry x="327.5" y="281" width="75" height="30" as="geometry" />
        </mxCell>
        <mxCell id="qeAUwu_SVHN8Ln0CX-Be-21" value="" style="endArrow=classic;html=1;rounded=0;" edge="1" parent="1">
          <mxGeometry width="50" height="50" relative="1" as="geometry">
            <mxPoint x="280" y="306" as="sourcePoint" />
            <mxPoint x="50" y="306" as="targetPoint" />
          </mxGeometry>
        </mxCell>
        <mxCell id="qeAUwu_SVHN8Ln0CX-Be-22" value="&lt;font style=&quot;font-size: 8px;&quot;&gt;Display login page&lt;/font&gt;" style="text;html=1;strokeColor=none;fillColor=none;align=center;verticalAlign=middle;whiteSpace=wrap;rounded=0;" vertex="1" parent="1">
          <mxGeometry x="177.5" y="281" width="75" height="30" as="geometry" />
        </mxCell>
        <mxCell id="qeAUwu_SVHN8Ln0CX-Be-23" value="&lt;font size=&quot;1&quot;&gt;Repository&lt;/font&gt;" style="ellipse;whiteSpace=wrap;html=1;aspect=fixed;" vertex="1" parent="1">
          <mxGeometry x="706.22" y="20" width="70" height="70" as="geometry" />
        </mxCell>
        <mxCell id="qeAUwu_SVHN8Ln0CX-Be-24" value="&lt;font size=&quot;1&quot;&gt;Committee&lt;/font&gt;" style="ellipse;whiteSpace=wrap;html=1;aspect=fixed;" vertex="1" parent="1">
          <mxGeometry x="845.22" y="20" width="70" height="70" as="geometry" />
        </mxCell>
        <mxCell id="qeAUwu_SVHN8Ln0CX-Be-25" value="&lt;font size=&quot;1&quot;&gt;Participants&lt;/font&gt;" style="ellipse;whiteSpace=wrap;html=1;aspect=fixed;" vertex="1" parent="1">
          <mxGeometry x="973" y="20" width="70" height="70" as="geometry" />
        </mxCell>
        <mxCell id="qeAUwu_SVHN8Ln0CX-Be-26" value="" style="endArrow=classic;html=1;rounded=0;" edge="1" parent="1">
          <mxGeometry width="50" height="50" relative="1" as="geometry">
            <mxPoint x="50" y="352" as="sourcePoint" />
            <mxPoint x="280" y="352" as="targetPoint" />
          </mxGeometry>
        </mxCell>
        <mxCell id="qeAUwu_SVHN8Ln0CX-Be-27" value="&lt;font style=&quot;font-size: 8px;&quot;&gt;Click on login button&amp;nbsp;&lt;/font&gt;" style="text;html=1;strokeColor=none;fillColor=none;align=center;verticalAlign=middle;whiteSpace=wrap;rounded=0;" vertex="1" parent="1">
          <mxGeometry x="172.5" y="326" width="85" height="30" as="geometry" />
        </mxCell>
        <mxCell id="qeAUwu_SVHN8Ln0CX-Be-28" value="" style="endArrow=classic;html=1;rounded=0;" edge="1" parent="1">
          <mxGeometry width="50" height="50" relative="1" as="geometry">
            <mxPoint x="300" y="352" as="sourcePoint" />
            <mxPoint x="430" y="352" as="targetPoint" />
          </mxGeometry>
        </mxCell>
        <mxCell id="qeAUwu_SVHN8Ln0CX-Be-29" value="&lt;font style=&quot;font-size: 8px;&quot;&gt;Click on login button&amp;nbsp;&lt;/font&gt;" style="text;html=1;strokeColor=none;fillColor=none;align=center;verticalAlign=middle;whiteSpace=wrap;rounded=0;" vertex="1" parent="1">
          <mxGeometry x="322.5" y="326" width="85" height="30" as="geometry" />
        </mxCell>
        <mxCell id="qeAUwu_SVHN8Ln0CX-Be-30" value="" style="endArrow=classic;html=1;rounded=0;" edge="1" parent="1">
          <mxGeometry width="50" height="50" relative="1" as="geometry">
            <mxPoint x="430" y="391" as="sourcePoint" />
            <mxPoint x="300" y="391" as="targetPoint" />
          </mxGeometry>
        </mxCell>
        <mxCell id="qeAUwu_SVHN8Ln0CX-Be-31" value="&lt;font style=&quot;font-size: 8px;&quot;&gt;Redirect to login page&lt;/font&gt;" style="text;html=1;strokeColor=none;fillColor=none;align=center;verticalAlign=middle;whiteSpace=wrap;rounded=0;" vertex="1" parent="1">
          <mxGeometry x="322.5" y="366" width="92.5" height="30" as="geometry" />
        </mxCell>
        <mxCell id="qeAUwu_SVHN8Ln0CX-Be-32" value="" style="endArrow=classic;html=1;rounded=0;" edge="1" parent="1">
          <mxGeometry width="50" height="50" relative="1" as="geometry">
            <mxPoint x="280" y="391" as="sourcePoint" />
            <mxPoint x="50" y="391" as="targetPoint" />
          </mxGeometry>
        </mxCell>
        <mxCell id="qeAUwu_SVHN8Ln0CX-Be-33" value="&lt;font style=&quot;font-size: 8px;&quot;&gt;Redirect to login page&lt;/font&gt;" style="text;html=1;strokeColor=none;fillColor=none;align=center;verticalAlign=middle;whiteSpace=wrap;rounded=0;" vertex="1" parent="1">
          <mxGeometry x="172.5" y="366" width="92.5" height="30" as="geometry" />
        </mxCell>
        <mxCell id="qeAUwu_SVHN8Ln0CX-Be-34" value="" style="endArrow=classic;html=1;rounded=0;" edge="1" parent="1">
          <mxGeometry width="50" height="50" relative="1" as="geometry">
            <mxPoint x="50" y="432" as="sourcePoint" />
            <mxPoint x="280" y="432" as="targetPoint" />
          </mxGeometry>
        </mxCell>
        <mxCell id="qeAUwu_SVHN8Ln0CX-Be-35" value="&lt;span style=&quot;font-size: 8px;&quot;&gt;Sending login request&lt;/span&gt;" style="text;html=1;strokeColor=none;fillColor=none;align=center;verticalAlign=middle;whiteSpace=wrap;rounded=0;" vertex="1" parent="1">
          <mxGeometry x="172.5" y="406" width="85" height="30" as="geometry" />
        </mxCell>
        <mxCell id="qeAUwu_SVHN8Ln0CX-Be-36" value="" style="endArrow=classic;html=1;rounded=0;" edge="1" parent="1">
          <mxGeometry width="50" height="50" relative="1" as="geometry">
            <mxPoint x="300" y="432" as="sourcePoint" />
            <mxPoint x="430" y="432" as="targetPoint" />
          </mxGeometry>
        </mxCell>
        <mxCell id="qeAUwu_SVHN8Ln0CX-Be-37" value="&lt;font style=&quot;font-size: 8px;&quot;&gt;Sending login request&lt;/font&gt;" style="text;html=1;strokeColor=none;fillColor=none;align=center;verticalAlign=middle;whiteSpace=wrap;rounded=0;" vertex="1" parent="1">
          <mxGeometry x="322.5" y="406" width="85" height="30" as="geometry" />
        </mxCell>
        <mxCell id="qeAUwu_SVHN8Ln0CX-Be-40" value="&lt;font size=&quot;1&quot;&gt;Event management system&lt;/font&gt;" style="ellipse;whiteSpace=wrap;html=1;aspect=fixed;" vertex="1" parent="1">
          <mxGeometry x="557.5" y="20" width="70" height="70" as="geometry" />
        </mxCell>
        <mxCell id="qeAUwu_SVHN8Ln0CX-Be-41" value="" style="rounded=0;whiteSpace=wrap;html=1;rotation=90;" vertex="1" parent="1">
          <mxGeometry x="-22.87" y="762.53" width="1228.2" height="10" as="geometry" />
        </mxCell>
        <mxCell id="qeAUwu_SVHN8Ln0CX-Be-42" value="" style="endArrow=classic;html=1;rounded=0;" edge="1" parent="1">
          <mxGeometry width="50" height="50" relative="1" as="geometry">
            <mxPoint x="450" y="446" as="sourcePoint" />
            <mxPoint x="580" y="446" as="targetPoint" />
          </mxGeometry>
        </mxCell>
        <mxCell id="qeAUwu_SVHN8Ln0CX-Be-43" value="&lt;font style=&quot;font-size: 8px;&quot;&gt;Process login request&lt;/font&gt;" style="text;html=1;strokeColor=none;fillColor=none;align=center;verticalAlign=middle;whiteSpace=wrap;rounded=0;" vertex="1" parent="1">
          <mxGeometry x="472.5" y="420" width="85" height="30" as="geometry" />
        </mxCell>
        <mxCell id="qeAUwu_SVHN8Ln0CX-Be-44" value="" style="endArrow=classic;html=1;rounded=0;" edge="1" parent="1">
          <mxGeometry width="50" height="50" relative="1" as="geometry">
            <mxPoint x="580" y="507" as="sourcePoint" />
            <mxPoint x="450" y="507" as="targetPoint" />
          </mxGeometry>
        </mxCell>
        <mxCell id="qeAUwu_SVHN8Ln0CX-Be-45" value="&lt;font style=&quot;font-size: 8px;&quot;&gt;Return user information&lt;/font&gt;" style="text;html=1;strokeColor=none;fillColor=none;align=center;verticalAlign=middle;whiteSpace=wrap;rounded=0;" vertex="1" parent="1">
          <mxGeometry x="472.5" y="482" width="92.5" height="30" as="geometry" />
        </mxCell>
        <mxCell id="qeAUwu_SVHN8Ln0CX-Be-46" value="" style="endArrow=classic;html=1;rounded=0;" edge="1" parent="1">
          <mxGeometry width="50" height="50" relative="1" as="geometry">
            <mxPoint x="430" y="525" as="sourcePoint" />
            <mxPoint x="300" y="525" as="targetPoint" />
          </mxGeometry>
        </mxCell>
        <mxCell id="qeAUwu_SVHN8Ln0CX-Be-47" value="&lt;font style=&quot;font-size: 8px;&quot;&gt;Redirect to home page&lt;/font&gt;" style="text;html=1;strokeColor=none;fillColor=none;align=center;verticalAlign=middle;whiteSpace=wrap;rounded=0;" vertex="1" parent="1">
          <mxGeometry x="313.75" y="500" width="110" height="30" as="geometry" />
        </mxCell>
        <mxCell id="qeAUwu_SVHN8Ln0CX-Be-48" value="" style="rounded=0;whiteSpace=wrap;html=1;rotation=90;" vertex="1" parent="1">
          <mxGeometry x="337.22" y="554.0000000000001" width="808" height="10" as="geometry" />
        </mxCell>
        <mxCell id="qeAUwu_SVHN8Ln0CX-Be-49" value="" style="endArrow=classic;html=1;rounded=0;" edge="1" parent="1">
          <mxGeometry width="50" height="50" relative="1" as="geometry">
            <mxPoint x="50" y="186" as="sourcePoint" />
            <mxPoint x="280" y="186" as="targetPoint" />
          </mxGeometry>
        </mxCell>
        <mxCell id="qeAUwu_SVHN8Ln0CX-Be-50" value="&lt;font style=&quot;font-size: 8px;&quot;&gt;View sign in page&lt;/font&gt;" style="text;html=1;strokeColor=none;fillColor=none;align=center;verticalAlign=middle;whiteSpace=wrap;rounded=0;" vertex="1" parent="1">
          <mxGeometry x="177.5" y="160" width="75" height="30" as="geometry" />
        </mxCell>
        <mxCell id="qeAUwu_SVHN8Ln0CX-Be-51" value="" style="endArrow=classic;html=1;rounded=0;" edge="1" parent="1">
          <mxGeometry width="50" height="50" relative="1" as="geometry">
            <mxPoint x="300" y="186" as="sourcePoint" />
            <mxPoint x="430" y="186" as="targetPoint" />
          </mxGeometry>
        </mxCell>
        <mxCell id="qeAUwu_SVHN8Ln0CX-Be-52" value="&lt;font style=&quot;font-size: 8px;&quot;&gt;View sign in page&lt;/font&gt;" style="text;html=1;strokeColor=none;fillColor=none;align=center;verticalAlign=middle;whiteSpace=wrap;rounded=0;" vertex="1" parent="1">
          <mxGeometry x="327.5" y="160" width="75" height="30" as="geometry" />
        </mxCell>
        <mxCell id="qeAUwu_SVHN8Ln0CX-Be-53" value="" style="endArrow=classic;html=1;rounded=0;" edge="1" parent="1">
          <mxGeometry width="50" height="50" relative="1" as="geometry">
            <mxPoint x="430" y="225" as="sourcePoint" />
            <mxPoint x="300" y="225" as="targetPoint" />
          </mxGeometry>
        </mxCell>
        <mxCell id="qeAUwu_SVHN8Ln0CX-Be-54" value="&lt;font style=&quot;font-size: 8px;&quot;&gt;Display sign in page&lt;/font&gt;" style="text;html=1;strokeColor=none;fillColor=none;align=center;verticalAlign=middle;whiteSpace=wrap;rounded=0;" vertex="1" parent="1">
          <mxGeometry x="327.5" y="200" width="75" height="30" as="geometry" />
        </mxCell>
        <mxCell id="qeAUwu_SVHN8Ln0CX-Be-56" value="" style="endArrow=classic;html=1;rounded=0;" edge="1" parent="1">
          <mxGeometry width="50" height="50" relative="1" as="geometry">
            <mxPoint x="280" y="225" as="sourcePoint" />
            <mxPoint x="50" y="225" as="targetPoint" />
          </mxGeometry>
        </mxCell>
        <mxCell id="qeAUwu_SVHN8Ln0CX-Be-57" value="&lt;font style=&quot;font-size: 8px;&quot;&gt;Display sign in page&lt;/font&gt;" style="text;html=1;strokeColor=none;fillColor=none;align=center;verticalAlign=middle;whiteSpace=wrap;rounded=0;" vertex="1" parent="1">
          <mxGeometry x="177.5" y="200" width="75" height="30" as="geometry" />
        </mxCell>
        <mxCell id="qeAUwu_SVHN8Ln0CX-Be-59" value="" style="endArrow=classic;html=1;rounded=0;" edge="1" parent="1">
          <mxGeometry width="50" height="50" relative="1" as="geometry">
            <mxPoint x="602" y="456" as="sourcePoint" />
            <mxPoint x="732" y="456" as="targetPoint" />
          </mxGeometry>
        </mxCell>
        <mxCell id="qeAUwu_SVHN8Ln0CX-Be-60" value="&lt;font style=&quot;font-size: 8px;&quot;&gt;Getting user information&lt;/font&gt;" style="text;html=1;strokeColor=none;fillColor=none;align=center;verticalAlign=middle;whiteSpace=wrap;rounded=0;" vertex="1" parent="1">
          <mxGeometry x="615" y="430" width="99.5" height="30" as="geometry" />
        </mxCell>
        <mxCell id="qeAUwu_SVHN8Ln0CX-Be-61" value="" style="endArrow=classic;html=1;rounded=0;" edge="1" parent="1">
          <mxGeometry width="50" height="50" relative="1" as="geometry">
            <mxPoint x="730.75" y="495" as="sourcePoint" />
            <mxPoint x="600.75" y="495" as="targetPoint" />
          </mxGeometry>
        </mxCell>
        <mxCell id="qeAUwu_SVHN8Ln0CX-Be-62" value="&lt;font style=&quot;font-size: 8px;&quot;&gt;Return user information&lt;/font&gt;" style="text;html=1;strokeColor=none;fillColor=none;align=center;verticalAlign=middle;whiteSpace=wrap;rounded=0;" vertex="1" parent="1">
          <mxGeometry x="622.25" y="470" width="92.5" height="30" as="geometry" />
        </mxCell>
        <mxCell id="qeAUwu_SVHN8Ln0CX-Be-63" value="" style="endArrow=classic;html=1;rounded=0;" edge="1" parent="1">
          <mxGeometry width="50" height="50" relative="1" as="geometry">
            <mxPoint x="280" y="537" as="sourcePoint" />
            <mxPoint x="50" y="537" as="targetPoint" />
          </mxGeometry>
        </mxCell>
        <mxCell id="qeAUwu_SVHN8Ln0CX-Be-64" value="&lt;font style=&quot;font-size: 8px;&quot;&gt;Display home page&lt;/font&gt;" style="text;html=1;strokeColor=none;fillColor=none;align=center;verticalAlign=middle;whiteSpace=wrap;rounded=0;" vertex="1" parent="1">
          <mxGeometry x="163.75" y="512" width="110" height="30" as="geometry" />
        </mxCell>
        <mxCell id="qeAUwu_SVHN8Ln0CX-Be-65" value="" style="endArrow=none;dashed=1;html=1;dashPattern=1 3;strokeWidth=2;rounded=0;entryX=0.5;entryY=1;entryDx=0;entryDy=0;" edge="1" parent="1" target="qeAUwu_SVHN8Ln0CX-Be-8">
          <mxGeometry width="50" height="50" relative="1" as="geometry">
            <mxPoint x="290" y="150" as="sourcePoint" />
            <mxPoint x="289.76" y="100" as="targetPoint" />
            <Array as="points">
              <mxPoint x="289.76" y="120" />
            </Array>
          </mxGeometry>
        </mxCell>
        <mxCell id="qeAUwu_SVHN8Ln0CX-Be-66" value="" style="endArrow=none;dashed=1;html=1;dashPattern=1 3;strokeWidth=2;rounded=0;entryX=0.5;entryY=1;entryDx=0;entryDy=0;" edge="1" parent="1">
          <mxGeometry width="50" height="50" relative="1" as="geometry">
            <mxPoint x="439.23" y="150" as="sourcePoint" />
            <mxPoint x="439.23" y="90" as="targetPoint" />
            <Array as="points">
              <mxPoint x="438.99" y="120" />
            </Array>
          </mxGeometry>
        </mxCell>
        <mxCell id="qeAUwu_SVHN8Ln0CX-Be-67" value="" style="endArrow=classic;html=1;rounded=0;" edge="1" parent="1">
          <mxGeometry width="50" height="50" relative="1" as="geometry">
            <mxPoint x="150" y="586" as="sourcePoint" />
            <mxPoint x="280" y="586" as="targetPoint" />
          </mxGeometry>
        </mxCell>
        <mxCell id="qeAUwu_SVHN8Ln0CX-Be-68" value="&lt;span style=&quot;font-size: 8px;&quot;&gt;Create an event&lt;/span&gt;" style="text;html=1;strokeColor=none;fillColor=none;align=center;verticalAlign=middle;whiteSpace=wrap;rounded=0;" vertex="1" parent="1">
          <mxGeometry x="172.5" y="560" width="85" height="30" as="geometry" />
        </mxCell>
        <mxCell id="qeAUwu_SVHN8Ln0CX-Be-69" value="" style="endArrow=classic;html=1;rounded=0;" edge="1" parent="1">
          <mxGeometry width="50" height="50" relative="1" as="geometry">
            <mxPoint x="300" y="586" as="sourcePoint" />
            <mxPoint x="430" y="586" as="targetPoint" />
          </mxGeometry>
        </mxCell>
        <mxCell id="qeAUwu_SVHN8Ln0CX-Be-70" value="&lt;span style=&quot;font-size: 8px;&quot;&gt;Create an event&lt;/span&gt;" style="text;html=1;strokeColor=none;fillColor=none;align=center;verticalAlign=middle;whiteSpace=wrap;rounded=0;" vertex="1" parent="1">
          <mxGeometry x="322.5" y="560" width="85" height="30" as="geometry" />
        </mxCell>
        <mxCell id="qeAUwu_SVHN8Ln0CX-Be-71" value="" style="endArrow=classic;html=1;rounded=0;" edge="1" parent="1">
          <mxGeometry width="50" height="50" relative="1" as="geometry">
            <mxPoint x="450" y="603.66" as="sourcePoint" />
            <mxPoint x="580" y="603.66" as="targetPoint" />
          </mxGeometry>
        </mxCell>
        <mxCell id="qeAUwu_SVHN8Ln0CX-Be-72" value="&lt;span style=&quot;font-size: 8px;&quot;&gt;Publish an event&lt;/span&gt;" style="text;html=1;strokeColor=none;fillColor=none;align=center;verticalAlign=middle;whiteSpace=wrap;rounded=0;" vertex="1" parent="1">
          <mxGeometry x="472.5" y="577.66" width="85" height="30" as="geometry" />
        </mxCell>
        <mxCell id="qeAUwu_SVHN8Ln0CX-Be-73" value="" style="endArrow=classic;html=1;rounded=0;" edge="1" parent="1">
          <mxGeometry width="50" height="50" relative="1" as="geometry">
            <mxPoint x="601.75" y="616" as="sourcePoint" />
            <mxPoint x="731.75" y="616" as="targetPoint" />
          </mxGeometry>
        </mxCell>
        <mxCell id="qeAUwu_SVHN8Ln0CX-Be-74" value="&lt;span style=&quot;font-size: 8px;&quot;&gt;Save event details&lt;/span&gt;" style="text;html=1;strokeColor=none;fillColor=none;align=center;verticalAlign=middle;whiteSpace=wrap;rounded=0;" vertex="1" parent="1">
          <mxGeometry x="622.25" y="590" width="85" height="30" as="geometry" />
        </mxCell>
        <mxCell id="qeAUwu_SVHN8Ln0CX-Be-75" value="" style="endArrow=classic;html=1;rounded=0;" edge="1" parent="1">
          <mxGeometry width="50" height="50" relative="1" as="geometry">
            <mxPoint x="733.5" y="655" as="sourcePoint" />
            <mxPoint x="603.5" y="655" as="targetPoint" />
          </mxGeometry>
        </mxCell>
        <mxCell id="qeAUwu_SVHN8Ln0CX-Be-76" value="&lt;font style=&quot;font-size: 8px;&quot;&gt;Return event details&lt;/font&gt;" style="text;html=1;strokeColor=none;fillColor=none;align=center;verticalAlign=middle;whiteSpace=wrap;rounded=0;" vertex="1" parent="1">
          <mxGeometry x="625" y="630" width="92.5" height="30" as="geometry" />
        </mxCell>
        <mxCell id="qeAUwu_SVHN8Ln0CX-Be-77" value="" style="endArrow=classic;html=1;rounded=0;" edge="1" parent="1">
          <mxGeometry width="50" height="50" relative="1" as="geometry">
            <mxPoint x="580" y="665" as="sourcePoint" />
            <mxPoint x="450" y="665" as="targetPoint" />
          </mxGeometry>
        </mxCell>
        <mxCell id="qeAUwu_SVHN8Ln0CX-Be-78" value="&lt;font style=&quot;font-size: 8px;&quot;&gt;Return event details&lt;/font&gt;" style="text;html=1;strokeColor=none;fillColor=none;align=center;verticalAlign=middle;whiteSpace=wrap;rounded=0;" vertex="1" parent="1">
          <mxGeometry x="471.5" y="640" width="92.5" height="30" as="geometry" />
        </mxCell>
        <mxCell id="qeAUwu_SVHN8Ln0CX-Be-79" value="" style="endArrow=classic;html=1;rounded=0;" edge="1" parent="1">
          <mxGeometry width="50" height="50" relative="1" as="geometry">
            <mxPoint x="430" y="675" as="sourcePoint" />
            <mxPoint x="300" y="675" as="targetPoint" />
          </mxGeometry>
        </mxCell>
        <mxCell id="qeAUwu_SVHN8Ln0CX-Be-80" value="&lt;span style=&quot;font-size: 8px;&quot;&gt;Redirect to home page&lt;/span&gt;" style="text;html=1;strokeColor=none;fillColor=none;align=center;verticalAlign=middle;whiteSpace=wrap;rounded=0;" vertex="1" parent="1">
          <mxGeometry x="321.5" y="650" width="92.5" height="30" as="geometry" />
        </mxCell>
        <mxCell id="qeAUwu_SVHN8Ln0CX-Be-81" value="" style="endArrow=classic;html=1;rounded=0;" edge="1" parent="1">
          <mxGeometry width="50" height="50" relative="1" as="geometry">
            <mxPoint x="280" y="675" as="sourcePoint" />
            <mxPoint x="150" y="675" as="targetPoint" />
          </mxGeometry>
        </mxCell>
        <mxCell id="qeAUwu_SVHN8Ln0CX-Be-82" value="&lt;span style=&quot;font-size: 8px;&quot;&gt;Display home page&lt;/span&gt;" style="text;html=1;strokeColor=none;fillColor=none;align=center;verticalAlign=middle;whiteSpace=wrap;rounded=0;" vertex="1" parent="1">
          <mxGeometry x="171.5" y="650" width="92.5" height="30" as="geometry" />
        </mxCell>
        <mxCell id="qeAUwu_SVHN8Ln0CX-Be-83" value="" style="endArrow=none;dashed=1;html=1;dashPattern=1 3;strokeWidth=2;rounded=0;entryX=0.5;entryY=1;entryDx=0;entryDy=0;" edge="1" parent="1">
          <mxGeometry width="50" height="50" relative="1" as="geometry">
            <mxPoint x="591.09" y="150" as="sourcePoint" />
            <mxPoint x="591.09" y="90" as="targetPoint" />
            <Array as="points">
              <mxPoint x="590.85" y="120" />
            </Array>
          </mxGeometry>
        </mxCell>
        <mxCell id="qeAUwu_SVHN8Ln0CX-Be-84" value="" style="endArrow=none;dashed=1;html=1;dashPattern=1 3;strokeWidth=2;rounded=0;entryX=0.5;entryY=1;entryDx=0;entryDy=0;" edge="1" parent="1">
          <mxGeometry width="50" height="50" relative="1" as="geometry">
            <mxPoint x="741.03" y="150" as="sourcePoint" />
            <mxPoint x="741.03" y="90" as="targetPoint" />
            <Array as="points">
              <mxPoint x="740.79" y="120" />
            </Array>
          </mxGeometry>
        </mxCell>
        <mxCell id="qeAUwu_SVHN8Ln0CX-Be-85" value="" style="rounded=0;whiteSpace=wrap;html=1;rotation=90;" vertex="1" parent="1">
          <mxGeometry x="341.76" y="689.24" width="1076.92" height="10" as="geometry" />
        </mxCell>
        <mxCell id="qeAUwu_SVHN8Ln0CX-Be-86" value="" style="endArrow=classic;html=1;rounded=0;" edge="1" parent="1">
          <mxGeometry width="50" height="50" relative="1" as="geometry">
            <mxPoint x="50" y="746" as="sourcePoint" />
            <mxPoint x="280" y="746" as="targetPoint" />
          </mxGeometry>
        </mxCell>
        <mxCell id="qeAUwu_SVHN8Ln0CX-Be-87" value="&lt;span style=&quot;font-size: 8px;&quot;&gt;Select an event&lt;/span&gt;" style="text;html=1;strokeColor=none;fillColor=none;align=center;verticalAlign=middle;whiteSpace=wrap;rounded=0;" vertex="1" parent="1">
          <mxGeometry x="120" y="720" width="85" height="30" as="geometry" />
        </mxCell>
        <mxCell id="qeAUwu_SVHN8Ln0CX-Be-88" value="" style="endArrow=classic;html=1;rounded=0;" edge="1" parent="1">
          <mxGeometry width="50" height="50" relative="1" as="geometry">
            <mxPoint x="300" y="746" as="sourcePoint" />
            <mxPoint x="430" y="746" as="targetPoint" />
          </mxGeometry>
        </mxCell>
        <mxCell id="qeAUwu_SVHN8Ln0CX-Be-89" value="&lt;span style=&quot;font-size: 8px;&quot;&gt;Select an event&lt;/span&gt;" style="text;html=1;strokeColor=none;fillColor=none;align=center;verticalAlign=middle;whiteSpace=wrap;rounded=0;" vertex="1" parent="1">
          <mxGeometry x="322.5" y="720" width="85" height="30" as="geometry" />
        </mxCell>
        <mxCell id="qeAUwu_SVHN8Ln0CX-Be-90" value="" style="endArrow=classic;html=1;rounded=0;" edge="1" parent="1">
          <mxGeometry width="50" height="50" relative="1" as="geometry">
            <mxPoint x="430" y="785" as="sourcePoint" />
            <mxPoint x="300" y="785" as="targetPoint" />
          </mxGeometry>
        </mxCell>
        <mxCell id="qeAUwu_SVHN8Ln0CX-Be-91" value="&lt;font style=&quot;font-size: 8px;&quot;&gt;Display event page&lt;/font&gt;" style="text;html=1;strokeColor=none;fillColor=none;align=center;verticalAlign=middle;whiteSpace=wrap;rounded=0;" vertex="1" parent="1">
          <mxGeometry x="327.5" y="760" width="75" height="30" as="geometry" />
        </mxCell>
        <mxCell id="qeAUwu_SVHN8Ln0CX-Be-92" value="" style="endArrow=classic;html=1;rounded=0;" edge="1" parent="1">
          <mxGeometry width="50" height="50" relative="1" as="geometry">
            <mxPoint x="280" y="785" as="sourcePoint" />
            <mxPoint x="50" y="785" as="targetPoint" />
          </mxGeometry>
        </mxCell>
        <mxCell id="qeAUwu_SVHN8Ln0CX-Be-93" value="&lt;font style=&quot;font-size: 8px;&quot;&gt;Display event page&lt;/font&gt;" style="text;html=1;strokeColor=none;fillColor=none;align=center;verticalAlign=middle;whiteSpace=wrap;rounded=0;" vertex="1" parent="1">
          <mxGeometry x="125" y="760" width="75" height="30" as="geometry" />
        </mxCell>
        <mxCell id="qeAUwu_SVHN8Ln0CX-Be-94" value="" style="endArrow=classic;html=1;rounded=0;" edge="1" parent="1">
          <mxGeometry width="50" height="50" relative="1" as="geometry">
            <mxPoint x="50" y="826" as="sourcePoint" />
            <mxPoint x="280" y="826" as="targetPoint" />
          </mxGeometry>
        </mxCell>
        <mxCell id="qeAUwu_SVHN8Ln0CX-Be-95" value="&lt;span style=&quot;font-size: 8px;&quot;&gt;Click &#39;Become a committee&#39; button&lt;/span&gt;" style="text;html=1;strokeColor=none;fillColor=none;align=center;verticalAlign=middle;whiteSpace=wrap;rounded=0;" vertex="1" parent="1">
          <mxGeometry x="98.75" y="800" width="127.5" height="30" as="geometry" />
        </mxCell>
        <mxCell id="qeAUwu_SVHN8Ln0CX-Be-96" value="" style="endArrow=classic;html=1;rounded=0;" edge="1" parent="1">
          <mxGeometry width="50" height="50" relative="1" as="geometry">
            <mxPoint x="300" y="826" as="sourcePoint" />
            <mxPoint x="430" y="826" as="targetPoint" />
          </mxGeometry>
        </mxCell>
        <mxCell id="qeAUwu_SVHN8Ln0CX-Be-98" value="&lt;span style=&quot;font-size: 8px;&quot;&gt;Click &#39;Become a committee&#39; button&lt;/span&gt;" style="text;html=1;strokeColor=none;fillColor=none;align=center;verticalAlign=middle;whiteSpace=wrap;rounded=0;" vertex="1" parent="1">
          <mxGeometry x="299" y="800" width="132" height="30" as="geometry" />
        </mxCell>
        <mxCell id="qeAUwu_SVHN8Ln0CX-Be-99" value="" style="endArrow=classic;html=1;rounded=0;" edge="1" parent="1">
          <mxGeometry width="50" height="50" relative="1" as="geometry">
            <mxPoint x="431" y="865" as="sourcePoint" />
            <mxPoint x="301" y="865" as="targetPoint" />
          </mxGeometry>
        </mxCell>
        <mxCell id="qeAUwu_SVHN8Ln0CX-Be-100" value="&lt;font style=&quot;font-size: 8px;&quot;&gt;Display committee list page&lt;/font&gt;" style="text;html=1;strokeColor=none;fillColor=none;align=center;verticalAlign=middle;whiteSpace=wrap;rounded=0;" vertex="1" parent="1">
          <mxGeometry x="318" y="840" width="101.5" height="30" as="geometry" />
        </mxCell>
        <mxCell id="qeAUwu_SVHN8Ln0CX-Be-101" value="" style="endArrow=classic;html=1;rounded=0;" edge="1" parent="1">
          <mxGeometry width="50" height="50" relative="1" as="geometry">
            <mxPoint x="280" y="865" as="sourcePoint" />
            <mxPoint x="50" y="865" as="targetPoint" />
          </mxGeometry>
        </mxCell>
        <mxCell id="qeAUwu_SVHN8Ln0CX-Be-102" value="&lt;font style=&quot;font-size: 8px;&quot;&gt;Display committee list page&lt;/font&gt;" style="text;html=1;strokeColor=none;fillColor=none;align=center;verticalAlign=middle;whiteSpace=wrap;rounded=0;" vertex="1" parent="1">
          <mxGeometry x="111.75" y="840" width="101.5" height="30" as="geometry" />
        </mxCell>
        <mxCell id="qeAUwu_SVHN8Ln0CX-Be-103" value="" style="endArrow=classic;html=1;rounded=0;" edge="1" parent="1">
          <mxGeometry width="50" height="50" relative="1" as="geometry">
            <mxPoint x="50" y="906" as="sourcePoint" />
            <mxPoint x="280" y="906" as="targetPoint" />
          </mxGeometry>
        </mxCell>
        <mxCell id="qeAUwu_SVHN8Ln0CX-Be-104" value="&lt;span style=&quot;font-size: 8px;&quot;&gt;Click &#39;Add committee&#39; button&lt;/span&gt;" style="text;html=1;strokeColor=none;fillColor=none;align=center;verticalAlign=middle;whiteSpace=wrap;rounded=0;" vertex="1" parent="1">
          <mxGeometry x="98.75" y="880" width="127.5" height="30" as="geometry" />
        </mxCell>
        <mxCell id="qeAUwu_SVHN8Ln0CX-Be-107" value="" style="endArrow=classic;html=1;rounded=0;" edge="1" parent="1">
          <mxGeometry width="50" height="50" relative="1" as="geometry">
            <mxPoint x="301" y="906" as="sourcePoint" />
            <mxPoint x="431" y="906" as="targetPoint" />
          </mxGeometry>
        </mxCell>
        <mxCell id="qeAUwu_SVHN8Ln0CX-Be-108" value="&lt;font style=&quot;font-size: 8px;&quot;&gt;Click &#39;Add committee&#39; button&lt;/font&gt;" style="text;html=1;strokeColor=none;fillColor=none;align=center;verticalAlign=middle;whiteSpace=wrap;rounded=0;" vertex="1" parent="1">
          <mxGeometry x="305.25" y="880" width="118.5" height="30" as="geometry" />
        </mxCell>
        <mxCell id="qeAUwu_SVHN8Ln0CX-Be-109" value="" style="endArrow=classic;html=1;rounded=0;" edge="1" parent="1">
          <mxGeometry width="50" height="50" relative="1" as="geometry">
            <mxPoint x="431" y="945" as="sourcePoint" />
            <mxPoint x="301" y="945" as="targetPoint" />
          </mxGeometry>
        </mxCell>
        <mxCell id="qeAUwu_SVHN8Ln0CX-Be-110" value="&lt;font style=&quot;font-size: 8px;&quot;&gt;Display committee form page&lt;/font&gt;" style="text;html=1;strokeColor=none;fillColor=none;align=center;verticalAlign=middle;whiteSpace=wrap;rounded=0;" vertex="1" parent="1">
          <mxGeometry x="310.25" y="920" width="109.5" height="30" as="geometry" />
        </mxCell>
        <mxCell id="qeAUwu_SVHN8Ln0CX-Be-112" value="" style="endArrow=classic;html=1;rounded=0;" edge="1" parent="1">
          <mxGeometry width="50" height="50" relative="1" as="geometry">
            <mxPoint x="280" y="945" as="sourcePoint" />
            <mxPoint x="50" y="945" as="targetPoint" />
          </mxGeometry>
        </mxCell>
        <mxCell id="qeAUwu_SVHN8Ln0CX-Be-113" value="&lt;font style=&quot;font-size: 8px;&quot;&gt;Display committee form page&lt;/font&gt;" style="text;html=1;strokeColor=none;fillColor=none;align=center;verticalAlign=middle;whiteSpace=wrap;rounded=0;" vertex="1" parent="1">
          <mxGeometry x="107.75" y="920" width="109.5" height="30" as="geometry" />
        </mxCell>
        <mxCell id="qeAUwu_SVHN8Ln0CX-Be-114" value="" style="endArrow=classic;html=1;rounded=0;" edge="1" parent="1">
          <mxGeometry width="50" height="50" relative="1" as="geometry">
            <mxPoint x="47.5" y="986" as="sourcePoint" />
            <mxPoint x="277.5" y="986" as="targetPoint" />
          </mxGeometry>
        </mxCell>
        <mxCell id="qeAUwu_SVHN8Ln0CX-Be-115" value="&lt;span style=&quot;font-size: 8px;&quot;&gt;Fill the committee form&lt;/span&gt;" style="text;html=1;strokeColor=none;fillColor=none;align=center;verticalAlign=middle;whiteSpace=wrap;rounded=0;" vertex="1" parent="1">
          <mxGeometry x="96.25" y="960" width="127.5" height="30" as="geometry" />
        </mxCell>
        <mxCell id="qeAUwu_SVHN8Ln0CX-Be-116" value="" style="endArrow=classic;html=1;rounded=0;" edge="1" parent="1">
          <mxGeometry width="50" height="50" relative="1" as="geometry">
            <mxPoint x="300" y="986" as="sourcePoint" />
            <mxPoint x="430" y="986" as="targetPoint" />
          </mxGeometry>
        </mxCell>
        <mxCell id="qeAUwu_SVHN8Ln0CX-Be-117" value="&lt;span style=&quot;font-size: 8px;&quot;&gt;Fill the committee form&lt;/span&gt;" style="text;html=1;strokeColor=none;fillColor=none;align=center;verticalAlign=middle;whiteSpace=wrap;rounded=0;" vertex="1" parent="1">
          <mxGeometry x="322.5" y="960" width="85" height="30" as="geometry" />
        </mxCell>
        <mxCell id="qeAUwu_SVHN8Ln0CX-Be-118" value="" style="endArrow=none;dashed=1;html=1;dashPattern=1 3;strokeWidth=2;rounded=0;entryX=0.5;entryY=1;entryDx=0;entryDy=0;" edge="1" parent="1">
          <mxGeometry width="50" height="50" relative="1" as="geometry">
            <mxPoint x="879.69" y="150" as="sourcePoint" />
            <mxPoint x="879.69" y="90" as="targetPoint" />
            <Array as="points">
              <mxPoint x="879.45" y="120" />
            </Array>
          </mxGeometry>
        </mxCell>
        <mxCell id="qeAUwu_SVHN8Ln0CX-Be-120" value="" style="endArrow=classic;html=1;rounded=0;" edge="1" parent="1">
          <mxGeometry width="50" height="50" relative="1" as="geometry">
            <mxPoint x="450" y="1006" as="sourcePoint" />
            <mxPoint x="580" y="1006" as="targetPoint" />
          </mxGeometry>
        </mxCell>
        <mxCell id="qeAUwu_SVHN8Ln0CX-Be-121" value="&lt;span style=&quot;font-size: 8px;&quot;&gt;Add new committee&lt;/span&gt;" style="text;html=1;strokeColor=none;fillColor=none;align=center;verticalAlign=middle;whiteSpace=wrap;rounded=0;" vertex="1" parent="1">
          <mxGeometry x="472.5" y="980" width="85" height="30" as="geometry" />
        </mxCell>
        <mxCell id="qeAUwu_SVHN8Ln0CX-Be-122" value="" style="endArrow=classic;html=1;rounded=0;" edge="1" parent="1">
          <mxGeometry width="50" height="50" relative="1" as="geometry">
            <mxPoint x="603.5" y="1006" as="sourcePoint" />
            <mxPoint x="870" y="1006" as="targetPoint" />
          </mxGeometry>
        </mxCell>
        <mxCell id="qeAUwu_SVHN8Ln0CX-Be-123" value="&lt;span style=&quot;font-size: 8px;&quot;&gt;Add new committee&lt;/span&gt;" style="text;html=1;strokeColor=none;fillColor=none;align=center;verticalAlign=middle;whiteSpace=wrap;rounded=0;" vertex="1" parent="1">
          <mxGeometry x="691.22" y="980" width="85" height="30" as="geometry" />
        </mxCell>
        <mxCell id="qeAUwu_SVHN8Ln0CX-Be-124" value="" style="endArrow=classic;html=1;rounded=0;" edge="1" parent="1">
          <mxGeometry width="50" height="50" relative="1" as="geometry">
            <mxPoint x="870" y="1045" as="sourcePoint" />
            <mxPoint x="610" y="1045" as="targetPoint" />
          </mxGeometry>
        </mxCell>
        <mxCell id="qeAUwu_SVHN8Ln0CX-Be-125" value="&lt;span style=&quot;font-size: 8px;&quot;&gt;Return committee list&lt;/span&gt;" style="text;html=1;strokeColor=none;fillColor=none;align=center;verticalAlign=middle;whiteSpace=wrap;rounded=0;" vertex="1" parent="1">
          <mxGeometry x="687.47" y="1020" width="92.5" height="30" as="geometry" />
        </mxCell>
        <mxCell id="qeAUwu_SVHN8Ln0CX-Be-126" value="" style="endArrow=classic;html=1;rounded=0;" edge="1" parent="1">
          <mxGeometry width="50" height="50" relative="1" as="geometry">
            <mxPoint x="580.75" y="1057" as="sourcePoint" />
            <mxPoint x="450.75" y="1057" as="targetPoint" />
          </mxGeometry>
        </mxCell>
        <mxCell id="qeAUwu_SVHN8Ln0CX-Be-127" value="&lt;font style=&quot;font-size: 8px;&quot;&gt;Return committee list&lt;/font&gt;" style="text;html=1;strokeColor=none;fillColor=none;align=center;verticalAlign=middle;whiteSpace=wrap;rounded=0;" vertex="1" parent="1">
          <mxGeometry x="472.25" y="1032" width="92.5" height="30" as="geometry" />
        </mxCell>
        <mxCell id="qeAUwu_SVHN8Ln0CX-Be-128" value="" style="endArrow=classic;html=1;rounded=0;" edge="1" parent="1">
          <mxGeometry width="50" height="50" relative="1" as="geometry">
            <mxPoint x="429" y="1070" as="sourcePoint" />
            <mxPoint x="299" y="1070" as="targetPoint" />
          </mxGeometry>
        </mxCell>
        <mxCell id="qeAUwu_SVHN8Ln0CX-Be-129" value="&lt;font style=&quot;font-size: 8px;&quot;&gt;Display committee list page&lt;/font&gt;" style="text;html=1;strokeColor=none;fillColor=none;align=center;verticalAlign=middle;whiteSpace=wrap;rounded=0;" vertex="1" parent="1">
          <mxGeometry x="316" y="1045" width="101.5" height="30" as="geometry" />
        </mxCell>
        <mxCell id="qeAUwu_SVHN8Ln0CX-Be-130" value="" style="endArrow=classic;html=1;rounded=0;" edge="1" parent="1">
          <mxGeometry width="50" height="50" relative="1" as="geometry">
            <mxPoint x="277.5" y="1071" as="sourcePoint" />
            <mxPoint x="47.5" y="1071" as="targetPoint" />
          </mxGeometry>
        </mxCell>
        <mxCell id="qeAUwu_SVHN8Ln0CX-Be-131" value="&lt;font style=&quot;font-size: 8px;&quot;&gt;Display committee list page&lt;/font&gt;" style="text;html=1;strokeColor=none;fillColor=none;align=center;verticalAlign=middle;whiteSpace=wrap;rounded=0;" vertex="1" parent="1">
          <mxGeometry x="109.25" y="1046" width="101.5" height="30" as="geometry" />
        </mxCell>
        <mxCell id="qeAUwu_SVHN8Ln0CX-Be-132" value="" style="endArrow=none;dashed=1;html=1;dashPattern=1 3;strokeWidth=2;rounded=0;entryX=0.5;entryY=1;entryDx=0;entryDy=0;" edge="1" parent="1">
          <mxGeometry width="50" height="50" relative="1" as="geometry">
            <mxPoint x="1009.53" y="150" as="sourcePoint" />
            <mxPoint x="1009.53" y="90" as="targetPoint" />
            <Array as="points">
              <mxPoint x="1009.29" y="120" />
            </Array>
          </mxGeometry>
        </mxCell>
        <mxCell id="qeAUwu_SVHN8Ln0CX-Be-133" value="" style="rounded=0;whiteSpace=wrap;html=1;rotation=90;" vertex="1" parent="1">
          <mxGeometry x="400.31" y="759.86" width="1218.66" height="10" as="geometry" />
        </mxCell>
        <mxCell id="qeAUwu_SVHN8Ln0CX-Be-134" value="" style="endArrow=classic;html=1;rounded=0;" edge="1" parent="1">
          <mxGeometry width="50" height="50" relative="1" as="geometry">
            <mxPoint x="48.5" y="1116" as="sourcePoint" />
            <mxPoint x="278.5" y="1116" as="targetPoint" />
          </mxGeometry>
        </mxCell>
        <mxCell id="qeAUwu_SVHN8Ln0CX-Be-135" value="&lt;span style=&quot;font-size: 8px;&quot;&gt;Click &#39;Become a participant&#39; button&lt;/span&gt;" style="text;html=1;strokeColor=none;fillColor=none;align=center;verticalAlign=middle;whiteSpace=wrap;rounded=0;" vertex="1" parent="1">
          <mxGeometry x="96.25" y="1090" width="127.5" height="30" as="geometry" />
        </mxCell>
        <mxCell id="qeAUwu_SVHN8Ln0CX-Be-137" value="" style="endArrow=classic;html=1;rounded=0;" edge="1" parent="1">
          <mxGeometry width="50" height="50" relative="1" as="geometry">
            <mxPoint x="301.75" y="1116" as="sourcePoint" />
            <mxPoint x="431.75" y="1116" as="targetPoint" />
          </mxGeometry>
        </mxCell>
        <mxCell id="qeAUwu_SVHN8Ln0CX-Be-138" value="&lt;span style=&quot;font-size: 8px;&quot;&gt;Click &#39;Become a participant&#39; button&lt;/span&gt;" style="text;html=1;strokeColor=none;fillColor=none;align=center;verticalAlign=middle;whiteSpace=wrap;rounded=0;" vertex="1" parent="1">
          <mxGeometry x="301.25" y="1090" width="127.5" height="30" as="geometry" />
        </mxCell>
        <mxCell id="qeAUwu_SVHN8Ln0CX-Be-139" value="" style="endArrow=classic;html=1;rounded=0;" edge="1" parent="1">
          <mxGeometry width="50" height="50" relative="1" as="geometry">
            <mxPoint x="429.5" y="1155" as="sourcePoint" />
            <mxPoint x="299.5" y="1155" as="targetPoint" />
          </mxGeometry>
        </mxCell>
        <mxCell id="qeAUwu_SVHN8Ln0CX-Be-140" value="&lt;font style=&quot;font-size: 8px;&quot;&gt;Display participants list page&lt;/font&gt;" style="text;html=1;strokeColor=none;fillColor=none;align=center;verticalAlign=middle;whiteSpace=wrap;rounded=0;" vertex="1" parent="1">
          <mxGeometry x="311" y="1130" width="108" height="30" as="geometry" />
        </mxCell>
        <mxCell id="qeAUwu_SVHN8Ln0CX-Be-141" value="" style="endArrow=classic;html=1;rounded=0;" edge="1" parent="1">
          <mxGeometry width="50" height="50" relative="1" as="geometry">
            <mxPoint x="280" y="1155" as="sourcePoint" />
            <mxPoint x="50" y="1155" as="targetPoint" />
          </mxGeometry>
        </mxCell>
        <mxCell id="qeAUwu_SVHN8Ln0CX-Be-142" value="&lt;font style=&quot;font-size: 8px;&quot;&gt;Display participants list page&lt;/font&gt;" style="text;html=1;strokeColor=none;fillColor=none;align=center;verticalAlign=middle;whiteSpace=wrap;rounded=0;" vertex="1" parent="1">
          <mxGeometry x="109" y="1130" width="108" height="30" as="geometry" />
        </mxCell>
        <mxCell id="qeAUwu_SVHN8Ln0CX-Be-143" value="" style="endArrow=classic;html=1;rounded=0;" edge="1" parent="1">
          <mxGeometry width="50" height="50" relative="1" as="geometry">
            <mxPoint x="48" y="1196" as="sourcePoint" />
            <mxPoint x="278" y="1196" as="targetPoint" />
          </mxGeometry>
        </mxCell>
        <mxCell id="qeAUwu_SVHN8Ln0CX-Be-144" value="&lt;span style=&quot;font-size: 8px;&quot;&gt;Click &#39;Add participant&#39; button&lt;/span&gt;" style="text;html=1;strokeColor=none;fillColor=none;align=center;verticalAlign=middle;whiteSpace=wrap;rounded=0;" vertex="1" parent="1">
          <mxGeometry x="96.75" y="1170" width="127.5" height="30" as="geometry" />
        </mxCell>
        <mxCell id="qeAUwu_SVHN8Ln0CX-Be-145" value="" style="endArrow=classic;html=1;rounded=0;exitX=0.014;exitY=0.867;exitDx=0;exitDy=0;exitPerimeter=0;" edge="1" parent="1" source="qeAUwu_SVHN8Ln0CX-Be-146">
          <mxGeometry width="50" height="50" relative="1" as="geometry">
            <mxPoint x="249.5" y="1196" as="sourcePoint" />
            <mxPoint x="430" y="1196" as="targetPoint" />
          </mxGeometry>
        </mxCell>
        <mxCell id="qeAUwu_SVHN8Ln0CX-Be-146" value="&lt;span style=&quot;font-size: 8px;&quot;&gt;Click &#39;Add participant&#39; button&lt;/span&gt;" style="text;html=1;strokeColor=none;fillColor=none;align=center;verticalAlign=middle;whiteSpace=wrap;rounded=0;" vertex="1" parent="1">
          <mxGeometry x="298.25" y="1170" width="127.5" height="30" as="geometry" />
        </mxCell>
        <mxCell id="qeAUwu_SVHN8Ln0CX-Be-149" value="" style="endArrow=classic;html=1;rounded=0;" edge="1" parent="1">
          <mxGeometry width="50" height="50" relative="1" as="geometry">
            <mxPoint x="429.5" y="1235" as="sourcePoint" />
            <mxPoint x="299.5" y="1235" as="targetPoint" />
          </mxGeometry>
        </mxCell>
        <mxCell id="qeAUwu_SVHN8Ln0CX-Be-150" value="&lt;font style=&quot;font-size: 8px;&quot;&gt;Display participant form page&lt;/font&gt;" style="text;html=1;strokeColor=none;fillColor=none;align=center;verticalAlign=middle;whiteSpace=wrap;rounded=0;" vertex="1" parent="1">
          <mxGeometry x="308.75" y="1210" width="109.5" height="30" as="geometry" />
        </mxCell>
        <mxCell id="qeAUwu_SVHN8Ln0CX-Be-151" value="" style="endArrow=classic;html=1;rounded=0;" edge="1" parent="1">
          <mxGeometry width="50" height="50" relative="1" as="geometry">
            <mxPoint x="280" y="1235" as="sourcePoint" />
            <mxPoint x="50" y="1235" as="targetPoint" />
          </mxGeometry>
        </mxCell>
        <mxCell id="qeAUwu_SVHN8Ln0CX-Be-152" value="&lt;font style=&quot;font-size: 8px;&quot;&gt;Display participant form page&lt;/font&gt;" style="text;html=1;strokeColor=none;fillColor=none;align=center;verticalAlign=middle;whiteSpace=wrap;rounded=0;" vertex="1" parent="1">
          <mxGeometry x="108" y="1210" width="109.5" height="30" as="geometry" />
        </mxCell>
        <mxCell id="qeAUwu_SVHN8Ln0CX-Be-153" value="" style="endArrow=classic;html=1;rounded=0;" edge="1" parent="1">
          <mxGeometry width="50" height="50" relative="1" as="geometry">
            <mxPoint x="47.5" y="1266" as="sourcePoint" />
            <mxPoint x="277.5" y="1266" as="targetPoint" />
          </mxGeometry>
        </mxCell>
        <mxCell id="qeAUwu_SVHN8Ln0CX-Be-154" value="&lt;span style=&quot;font-size: 8px;&quot;&gt;Fill the participant form&lt;/span&gt;" style="text;html=1;strokeColor=none;fillColor=none;align=center;verticalAlign=middle;whiteSpace=wrap;rounded=0;" vertex="1" parent="1">
          <mxGeometry x="96.25" y="1240" width="127.5" height="30" as="geometry" />
        </mxCell>
        <mxCell id="qeAUwu_SVHN8Ln0CX-Be-155" value="" style="endArrow=classic;html=1;rounded=0;entryX=0.997;entryY=0.863;entryDx=0;entryDy=0;entryPerimeter=0;" edge="1" parent="1" target="qeAUwu_SVHN8Ln0CX-Be-156">
          <mxGeometry width="50" height="50" relative="1" as="geometry">
            <mxPoint x="300" y="1266" as="sourcePoint" />
            <mxPoint x="483.75" y="1266" as="targetPoint" />
          </mxGeometry>
        </mxCell>
        <mxCell id="qeAUwu_SVHN8Ln0CX-Be-156" value="&lt;span style=&quot;font-size: 8px;&quot;&gt;Fill the participant form&lt;/span&gt;" style="text;html=1;strokeColor=none;fillColor=none;align=center;verticalAlign=middle;whiteSpace=wrap;rounded=0;" vertex="1" parent="1">
          <mxGeometry x="302.5" y="1240" width="127.5" height="30" as="geometry" />
        </mxCell>
        <mxCell id="qeAUwu_SVHN8Ln0CX-Be-157" value="" style="endArrow=classic;html=1;rounded=0;" edge="1" parent="1">
          <mxGeometry width="50" height="50" relative="1" as="geometry">
            <mxPoint x="450" y="1276" as="sourcePoint" />
            <mxPoint x="580" y="1276" as="targetPoint" />
          </mxGeometry>
        </mxCell>
        <mxCell id="qeAUwu_SVHN8Ln0CX-Be-158" value="&lt;span style=&quot;font-size: 8px;&quot;&gt;Add new participant&lt;/span&gt;" style="text;html=1;strokeColor=none;fillColor=none;align=center;verticalAlign=middle;whiteSpace=wrap;rounded=0;" vertex="1" parent="1">
          <mxGeometry x="472.5" y="1250" width="85" height="30" as="geometry" />
        </mxCell>
        <mxCell id="qeAUwu_SVHN8Ln0CX-Be-159" value="" style="endArrow=classic;html=1;rounded=0;" edge="1" parent="1">
          <mxGeometry width="50" height="50" relative="1" as="geometry">
            <mxPoint x="610" y="1276" as="sourcePoint" />
            <mxPoint x="1000" y="1276" as="targetPoint" />
          </mxGeometry>
        </mxCell>
        <mxCell id="qeAUwu_SVHN8Ln0CX-Be-160" value="&lt;span style=&quot;font-size: 8px;&quot;&gt;Add new participant&lt;/span&gt;" style="text;html=1;strokeColor=none;fillColor=none;align=center;verticalAlign=middle;whiteSpace=wrap;rounded=0;" vertex="1" parent="1">
          <mxGeometry x="765" y="1250" width="85" height="30" as="geometry" />
        </mxCell>
        <mxCell id="qeAUwu_SVHN8Ln0CX-Be-161" value="" style="endArrow=classic;html=1;rounded=0;" edge="1" parent="1">
          <mxGeometry width="50" height="50" relative="1" as="geometry">
            <mxPoint x="1000" y="1315" as="sourcePoint" />
            <mxPoint x="610" y="1315" as="targetPoint" />
          </mxGeometry>
        </mxCell>
        <mxCell id="qeAUwu_SVHN8Ln0CX-Be-162" value="&lt;span style=&quot;font-size: 8px;&quot;&gt;Return participants list&lt;/span&gt;" style="text;html=1;strokeColor=none;fillColor=none;align=center;verticalAlign=middle;whiteSpace=wrap;rounded=0;" vertex="1" parent="1">
          <mxGeometry x="761.25" y="1290" width="92.5" height="30" as="geometry" />
        </mxCell>
        <mxCell id="qeAUwu_SVHN8Ln0CX-Be-163" value="" style="endArrow=classic;html=1;rounded=0;" edge="1" parent="1">
          <mxGeometry width="50" height="50" relative="1" as="geometry">
            <mxPoint x="582.5" y="1325" as="sourcePoint" />
            <mxPoint x="450" y="1325" as="targetPoint" />
          </mxGeometry>
        </mxCell>
        <mxCell id="qeAUwu_SVHN8Ln0CX-Be-164" value="&lt;span style=&quot;font-size: 8px;&quot;&gt;Return participants list&lt;/span&gt;" style="text;html=1;strokeColor=none;fillColor=none;align=center;verticalAlign=middle;whiteSpace=wrap;rounded=0;" vertex="1" parent="1">
          <mxGeometry x="468.75" y="1300" width="92.5" height="30" as="geometry" />
        </mxCell>
        <mxCell id="qeAUwu_SVHN8Ln0CX-Be-165" value="" style="endArrow=classic;html=1;rounded=0;" edge="1" parent="1">
          <mxGeometry width="50" height="50" relative="1" as="geometry">
            <mxPoint x="430" y="1335" as="sourcePoint" />
            <mxPoint x="300" y="1335" as="targetPoint" />
          </mxGeometry>
        </mxCell>
        <mxCell id="qeAUwu_SVHN8Ln0CX-Be-166" value="&lt;font style=&quot;font-size: 8px;&quot;&gt;Display participants list page&lt;/font&gt;" style="text;html=1;strokeColor=none;fillColor=none;align=center;verticalAlign=middle;whiteSpace=wrap;rounded=0;" vertex="1" parent="1">
          <mxGeometry x="307.5" y="1310" width="118.5" height="30" as="geometry" />
        </mxCell>
        <mxCell id="qeAUwu_SVHN8Ln0CX-Be-167" value="" style="endArrow=classic;html=1;rounded=0;" edge="1" parent="1">
          <mxGeometry width="50" height="50" relative="1" as="geometry">
            <mxPoint x="278" y="1345" as="sourcePoint" />
            <mxPoint x="48" y="1345" as="targetPoint" />
          </mxGeometry>
        </mxCell>
        <mxCell id="qeAUwu_SVHN8Ln0CX-Be-168" value="&lt;font style=&quot;font-size: 8px;&quot;&gt;Display committee list page&lt;/font&gt;" style="text;html=1;strokeColor=none;fillColor=none;align=center;verticalAlign=middle;whiteSpace=wrap;rounded=0;" vertex="1" parent="1">
          <mxGeometry x="109.75" y="1320" width="101.5" height="30" as="geometry" />
        </mxCell>
      </root>
    </mxGraphModel>
  </diagram>
</mxfile>
